<mxfile host="app.diagrams.net" agent="Mozilla/5.0 (X11; Ubuntu; Linux x86_64; rv:144.0) Gecko/20100101 Firefox/144.0" version="28.2.8">
  <diagram name="Page-1" id="bjVDkqN4jfYfFJxV3ved">
    <mxGraphModel dx="2793" dy="1136" grid="1" gridSize="10" guides="1" tooltips="1" connect="1" arrows="1" fold="1" page="1" pageScale="1" pageWidth="850" pageHeight="1100" math="0" shadow="0">
      <root>
        <mxCell id="0" />
        <mxCell id="1" parent="0" />
        <mxCell id="tC6INBS62KU_Nt3FtVll-2" value="A" style="rounded=0;whiteSpace=wrap;html=1;fillColor=light-dark(#FFFFFF,#FFFFFF);strokeColor=light-dark(#000000,#000000);strokeWidth=8;" parent="1" vertex="1">
          <mxGeometry x="-90" y="40" width="1240" height="650" as="geometry" />
        </mxCell>
        <mxCell id="tC6INBS62KU_Nt3FtVll-1" value="&lt;h1&gt;&lt;font style=&quot;color: light-dark(rgb(0, 0, 0), rgb(0, 0, 0)); font-size: 30px;&quot;&gt;ros2 launch humanoid_robot launch_humanoid.launch.py&lt;/font&gt;&lt;/h1&gt;" style="text;html=1;align=center;verticalAlign=middle;whiteSpace=wrap;rounded=0;fontSize=16;" parent="1" vertex="1">
          <mxGeometry x="48.25" y="80" width="860" height="30" as="geometry" />
        </mxCell>
        <mxCell id="tC6INBS62KU_Nt3FtVll-12" value="" style="rounded=1;whiteSpace=wrap;html=1;fillColor=none;strokeColor=light-dark(#000000,#000000);strokeWidth=3;" parent="1" vertex="1">
          <mxGeometry x="351" y="170" width="250" height="60" as="geometry" />
        </mxCell>
        <mxCell id="tC6INBS62KU_Nt3FtVll-13" value="&lt;div align=&quot;center&quot;&gt;&lt;span style=&quot;color: light-dark(rgb(0, 0, 0), rgb(0, 0, 0));&quot;&gt;&quot;humanoid_robot&quot;&lt;/span&gt;&lt;/div&gt;&lt;div align=&quot;center&quot;&gt;&lt;span style=&quot;color: light-dark(rgb(0, 0, 0), rgb(0, 0, 0));&quot;&gt;launch_humanoid.launch.py&lt;/span&gt;&lt;/div&gt;" style="text;strokeColor=none;fillColor=none;html=1;align=center;verticalAlign=middle;whiteSpace=wrap;rounded=0;fontSize=16;" parent="1" vertex="1">
          <mxGeometry x="424.25" y="180" width="103.75" height="30" as="geometry" />
        </mxCell>
        <mxCell id="tC6INBS62KU_Nt3FtVll-15" value="" style="rounded=1;whiteSpace=wrap;html=1;fillColor=none;strokeColor=light-dark(#000000,#000000);strokeWidth=3;" parent="1" vertex="1">
          <mxGeometry x="351" y="357" width="260" height="60" as="geometry" />
        </mxCell>
        <mxCell id="tC6INBS62KU_Nt3FtVll-16" value="&lt;div align=&quot;center&quot;&gt;&lt;span style=&quot;color: light-dark(rgb(0, 0, 0), rgb(0, 0, 0));&quot;&gt;&quot;humanoid_suport_moveit_config&quot;&lt;/span&gt;&lt;/div&gt;&lt;div align=&quot;center&quot;&gt;&lt;span style=&quot;color: light-dark(rgb(0, 0, 0), rgb(0, 0, 0));&quot;&gt;launch_moveit.launch.py&lt;/span&gt;&lt;/div&gt;" style="text;strokeColor=none;fillColor=none;html=1;align=center;verticalAlign=middle;whiteSpace=wrap;rounded=0;fontSize=16;" parent="1" vertex="1">
          <mxGeometry x="418.25" y="367" width="120" height="30" as="geometry" />
        </mxCell>
        <mxCell id="tC6INBS62KU_Nt3FtVll-17" value="" style="endArrow=classic;html=1;rounded=0;fontSize=12;startSize=8;endSize=8;curved=1;strokeColor=light-dark(#000000,#000000);entryX=0.5;entryY=0;entryDx=0;entryDy=0;exitX=0.5;exitY=1;exitDx=0;exitDy=0;strokeWidth=3;" parent="1" source="tC6INBS62KU_Nt3FtVll-12" target="tC6INBS62KU_Nt3FtVll-15" edge="1">
          <mxGeometry width="50" height="50" relative="1" as="geometry">
            <mxPoint x="619" y="170" as="sourcePoint" />
            <mxPoint x="481" y="210" as="targetPoint" />
          </mxGeometry>
        </mxCell>
        <mxCell id="tC6INBS62KU_Nt3FtVll-61" value="" style="endArrow=classic;html=1;rounded=0;fontSize=12;startSize=8;endSize=8;curved=1;strokeColor=light-dark(#000000,#000000);entryX=0.5;entryY=0;entryDx=0;entryDy=0;exitX=0.5;exitY=1;exitDx=0;exitDy=0;strokeWidth=3;" parent="1" source="tC6INBS62KU_Nt3FtVll-15" target="tC6INBS62KU_Nt3FtVll-77" edge="1">
          <mxGeometry width="50" height="50" relative="1" as="geometry">
            <mxPoint x="483" y="465" as="sourcePoint" />
            <mxPoint x="476.00000000000045" y="530" as="targetPoint" />
          </mxGeometry>
        </mxCell>
        <mxCell id="tC6INBS62KU_Nt3FtVll-68" value="" style="rhombus;whiteSpace=wrap;html=1;fillColor=none;strokeColor=light-dark(#000000,#000000);strokeWidth=3;" parent="1" vertex="1">
          <mxGeometry x="540" y="515" width="237" height="80" as="geometry" />
        </mxCell>
        <mxCell id="tC6INBS62KU_Nt3FtVll-69" value="&lt;div&gt;&lt;span style=&quot;color: light-dark(rgb(0, 0, 0), rgb(0, 0, 0));&quot;&gt;&quot;tf2_ros&quot;&lt;/span&gt;&lt;/div&gt;&lt;div&gt;&lt;span style=&quot;color: light-dark(rgb(0, 0, 0), rgb(0, 0, 0));&quot;&gt;static_transform_publisher&lt;/span&gt;&lt;/div&gt;" style="text;strokeColor=none;fillColor=none;html=1;align=center;verticalAlign=middle;whiteSpace=wrap;rounded=0;fontSize=16;" parent="1" vertex="1">
          <mxGeometry x="598" y="528" width="120" height="30" as="geometry" />
        </mxCell>
        <mxCell id="tC6INBS62KU_Nt3FtVll-70" value="" style="rhombus;whiteSpace=wrap;html=1;fillColor=none;strokeColor=light-dark(#000000,#000000);strokeWidth=3;" parent="1" vertex="1">
          <mxGeometry x="190" y="505" width="240" height="100" as="geometry" />
        </mxCell>
        <mxCell id="tC6INBS62KU_Nt3FtVll-71" value="&lt;div&gt;&lt;span style=&quot;color: light-dark(rgb(0, 0, 0), rgb(0, 0, 0));&quot;&gt;&quot;robot_state_publisher&quot;&lt;/span&gt;&lt;/div&gt;&lt;div&gt;&lt;span style=&quot;color: light-dark(rgb(0, 0, 0), rgb(0, 0, 0));&quot;&gt;robot_state_publisher&lt;/span&gt;&lt;/div&gt;" style="text;strokeColor=none;fillColor=none;html=1;align=center;verticalAlign=middle;whiteSpace=wrap;rounded=0;fontSize=16;" parent="1" vertex="1">
          <mxGeometry x="251" y="540" width="120" height="30" as="geometry" />
        </mxCell>
        <mxCell id="tC6INBS62KU_Nt3FtVll-73" value="" style="endArrow=classic;html=1;rounded=0;fontSize=12;startSize=8;endSize=8;curved=1;strokeColor=light-dark(#000000,#000000);entryX=0.5;entryY=0;entryDx=0;entryDy=0;exitX=0.75;exitY=1;exitDx=0;exitDy=0;strokeWidth=3;" parent="1" source="tC6INBS62KU_Nt3FtVll-15" target="tC6INBS62KU_Nt3FtVll-68" edge="1">
          <mxGeometry width="50" height="50" relative="1" as="geometry">
            <mxPoint x="651" y="425" as="sourcePoint" />
            <mxPoint x="651" y="455" as="targetPoint" />
            <Array as="points">
              <mxPoint x="580" y="485" />
            </Array>
          </mxGeometry>
        </mxCell>
        <mxCell id="tC6INBS62KU_Nt3FtVll-74" value="" style="endArrow=classic;html=1;rounded=0;fontSize=12;startSize=8;endSize=8;curved=1;strokeColor=light-dark(#000000,#000000);entryX=0.5;entryY=0;entryDx=0;entryDy=0;exitX=0.25;exitY=1;exitDx=0;exitDy=0;strokeWidth=3;" parent="1" source="tC6INBS62KU_Nt3FtVll-15" target="tC6INBS62KU_Nt3FtVll-70" edge="1">
          <mxGeometry width="50" height="50" relative="1" as="geometry">
            <mxPoint x="751" y="415" as="sourcePoint" />
            <mxPoint x="751" y="445" as="targetPoint" />
            <Array as="points">
              <mxPoint x="360" y="485" />
            </Array>
          </mxGeometry>
        </mxCell>
        <mxCell id="tC6INBS62KU_Nt3FtVll-77" value="" style="rhombus;whiteSpace=wrap;html=1;fillColor=none;strokeColor=light-dark(#000000,#000000);strokeWidth=3;" parent="1" vertex="1">
          <mxGeometry x="385" y="550" width="190" height="80" as="geometry" />
        </mxCell>
        <mxCell id="tC6INBS62KU_Nt3FtVll-78" value="&lt;div&gt;&lt;span style=&quot;color: light-dark(rgb(0, 0, 0), rgb(0, 0, 0));&quot;&gt;15 moveit actions&lt;/span&gt;&lt;/div&gt;" style="text;strokeColor=none;fillColor=none;html=1;align=center;verticalAlign=middle;whiteSpace=wrap;rounded=0;fontSize=16;" parent="1" vertex="1">
          <mxGeometry x="418" y="575" width="120" height="30" as="geometry" />
        </mxCell>
        <mxCell id="tC6INBS62KU_Nt3FtVll-79" value="" style="rounded=1;whiteSpace=wrap;html=1;fillColor=none;strokeColor=light-dark(#000000,#000000);strokeWidth=3;" parent="1" vertex="1">
          <mxGeometry x="150" y="275" width="260" height="60" as="geometry" />
        </mxCell>
        <mxCell id="tC6INBS62KU_Nt3FtVll-80" value="&lt;div align=&quot;center&quot;&gt;&lt;span style=&quot;color: light-dark(rgb(0, 0, 0), rgb(0, 0, 0));&quot;&gt;&quot;humanoid_suport_moveit_config&quot;&lt;/span&gt;&lt;/div&gt;&lt;div align=&quot;center&quot;&gt;&lt;span style=&quot;color: light-dark(rgb(0, 0, 0), rgb(0, 0, 0));&quot;&gt;launch_gz.launch.py&lt;/span&gt;&lt;/div&gt;" style="text;strokeColor=none;fillColor=none;html=1;align=center;verticalAlign=middle;whiteSpace=wrap;rounded=0;fontSize=16;" parent="1" vertex="1">
          <mxGeometry x="217.25" y="285" width="120" height="30" as="geometry" />
        </mxCell>
        <mxCell id="tC6INBS62KU_Nt3FtVll-81" value="" style="rounded=1;whiteSpace=wrap;html=1;fillColor=none;strokeColor=light-dark(#000000,#000000);strokeWidth=3;" parent="1" vertex="1">
          <mxGeometry x="575" y="270" width="260" height="60" as="geometry" />
        </mxCell>
        <mxCell id="tC6INBS62KU_Nt3FtVll-82" value="&lt;div align=&quot;center&quot;&gt;&lt;span style=&quot;color: light-dark(rgb(0, 0, 0), rgb(0, 0, 0));&quot;&gt;&quot;humanoid_suport_moveit_config&quot;&lt;/span&gt;&lt;/div&gt;&lt;div align=&quot;center&quot;&gt;&lt;span style=&quot;color: light-dark(rgb(0, 0, 0), rgb(0, 0, 0));&quot;&gt;launch_controllers.launch.py&lt;/span&gt;&lt;/div&gt;" style="text;strokeColor=none;fillColor=none;html=1;align=center;verticalAlign=middle;whiteSpace=wrap;rounded=0;fontSize=16;" parent="1" vertex="1">
          <mxGeometry x="642.25" y="280" width="120" height="30" as="geometry" />
        </mxCell>
        <mxCell id="tC6INBS62KU_Nt3FtVll-83" value="" style="endArrow=classic;html=1;rounded=0;fontSize=12;startSize=8;endSize=8;curved=1;strokeColor=light-dark(#000000,#000000);entryX=0.5;entryY=0;entryDx=0;entryDy=0;exitX=0;exitY=0.75;exitDx=0;exitDy=0;strokeWidth=3;" parent="1" source="tC6INBS62KU_Nt3FtVll-12" target="tC6INBS62KU_Nt3FtVll-79" edge="1">
          <mxGeometry width="50" height="50" relative="1" as="geometry">
            <mxPoint x="240" y="200" as="sourcePoint" />
            <mxPoint x="244" y="230" as="targetPoint" />
            <Array as="points">
              <mxPoint x="290" y="220" />
            </Array>
          </mxGeometry>
        </mxCell>
        <mxCell id="tC6INBS62KU_Nt3FtVll-84" value="" style="endArrow=classic;html=1;rounded=0;fontSize=12;startSize=8;endSize=8;curved=1;strokeColor=light-dark(#000000,#000000);entryX=0.5;entryY=0;entryDx=0;entryDy=0;exitX=1;exitY=0.75;exitDx=0;exitDy=0;strokeWidth=3;" parent="1" source="tC6INBS62KU_Nt3FtVll-12" target="tC6INBS62KU_Nt3FtVll-81" edge="1">
          <mxGeometry width="50" height="50" relative="1" as="geometry">
            <mxPoint x="720" y="230" as="sourcePoint" />
            <mxPoint x="724" y="260" as="targetPoint" />
            <Array as="points">
              <mxPoint x="690" y="215" />
            </Array>
          </mxGeometry>
        </mxCell>
        <mxCell id="tC6INBS62KU_Nt3FtVll-85" value="" style="rhombus;whiteSpace=wrap;html=1;fillColor=none;strokeColor=light-dark(#000000,#000000);strokeWidth=3;" parent="1" vertex="1">
          <mxGeometry x="-60" y="350" width="237" height="80" as="geometry" />
        </mxCell>
        <mxCell id="tC6INBS62KU_Nt3FtVll-86" value="&lt;div&gt;&lt;span style=&quot;color: light-dark(rgb(0, 0, 0), rgb(0, 0, 0));&quot;&gt;&quot;ros_gz_bridge&quot;&lt;/span&gt;&lt;/div&gt;&lt;div&gt;&lt;span style=&quot;color: light-dark(rgb(0, 0, 0), rgb(0, 0, 0));&quot;&gt;parameter_bridge&lt;/span&gt;&lt;/div&gt;" style="text;strokeColor=none;fillColor=none;html=1;align=center;verticalAlign=middle;whiteSpace=wrap;rounded=0;fontSize=16;" parent="1" vertex="1">
          <mxGeometry x="-3" y="372" width="120" height="30" as="geometry" />
        </mxCell>
        <mxCell id="tC6INBS62KU_Nt3FtVll-87" value="" style="rhombus;whiteSpace=wrap;html=1;fillColor=none;strokeColor=light-dark(#000000,#000000);strokeWidth=3;" parent="1" vertex="1">
          <mxGeometry x="118" y="410" width="190" height="80" as="geometry" />
        </mxCell>
        <mxCell id="tC6INBS62KU_Nt3FtVll-88" value="&lt;div&gt;&lt;span style=&quot;color: light-dark(rgb(0, 0, 0), rgb(0, 0, 0));&quot;&gt;&quot;roz_gz_sim&quot; create&lt;/span&gt;&lt;/div&gt;" style="text;strokeColor=none;fillColor=none;html=1;align=center;verticalAlign=middle;whiteSpace=wrap;rounded=0;fontSize=16;" parent="1" vertex="1">
          <mxGeometry x="151" y="435" width="120" height="30" as="geometry" />
        </mxCell>
        <mxCell id="tC6INBS62KU_Nt3FtVll-89" value="" style="endArrow=classic;html=1;rounded=0;fontSize=12;startSize=8;endSize=8;curved=1;strokeColor=light-dark(#000000,#000000);entryX=0.5;entryY=0;entryDx=0;entryDy=0;exitX=0;exitY=0.75;exitDx=0;exitDy=0;strokeWidth=3;" parent="1" source="tC6INBS62KU_Nt3FtVll-79" target="tC6INBS62KU_Nt3FtVll-85" edge="1">
          <mxGeometry width="50" height="50" relative="1" as="geometry">
            <mxPoint x="126" y="282.5" as="sourcePoint" />
            <mxPoint x="10" y="327.5" as="targetPoint" />
            <Array as="points">
              <mxPoint x="90" y="315" />
            </Array>
          </mxGeometry>
        </mxCell>
        <mxCell id="tC6INBS62KU_Nt3FtVll-90" value="" style="endArrow=classic;html=1;rounded=0;fontSize=12;startSize=8;endSize=8;curved=1;strokeColor=light-dark(#000000,#000000);entryX=0.5;entryY=0;entryDx=0;entryDy=0;exitX=0.5;exitY=1;exitDx=0;exitDy=0;strokeWidth=3;" parent="1" source="tC6INBS62KU_Nt3FtVll-79" target="tC6INBS62KU_Nt3FtVll-87" edge="1">
          <mxGeometry width="50" height="50" relative="1" as="geometry">
            <mxPoint x="326" y="375" as="sourcePoint" />
            <mxPoint x="210" y="420" as="targetPoint" />
            <Array as="points">
              <mxPoint x="220" y="355" />
            </Array>
          </mxGeometry>
        </mxCell>
        <mxCell id="tC6INBS62KU_Nt3FtVll-91" value="" style="rhombus;whiteSpace=wrap;html=1;fillColor=none;strokeColor=light-dark(#000000,#000000);strokeWidth=3;" parent="1" vertex="1">
          <mxGeometry x="623" y="418" width="190" height="80" as="geometry" />
        </mxCell>
        <mxCell id="tC6INBS62KU_Nt3FtVll-92" value="&lt;div&gt;&lt;span style=&quot;color: light-dark(rgb(0, 0, 0), rgb(0, 0, 0));&quot;&gt;&quot;twist_mux&quot; twist_mux&lt;/span&gt;&lt;/div&gt;" style="text;strokeColor=none;fillColor=none;html=1;align=center;verticalAlign=middle;whiteSpace=wrap;rounded=0;fontSize=16;" parent="1" vertex="1">
          <mxGeometry x="656" y="443" width="120" height="30" as="geometry" />
        </mxCell>
        <mxCell id="tC6INBS62KU_Nt3FtVll-93" value="" style="rhombus;whiteSpace=wrap;html=1;fillColor=none;strokeColor=light-dark(#000000,#000000);strokeWidth=3;" parent="1" vertex="1">
          <mxGeometry x="756.75" y="375" width="190" height="80" as="geometry" />
        </mxCell>
        <mxCell id="tC6INBS62KU_Nt3FtVll-94" value="&lt;div&gt;&lt;span style=&quot;color: light-dark(rgb(0, 0, 0), rgb(0, 0, 0));&quot;&gt;&quot;twist_stamper&quot; twist_stamper&lt;/span&gt;&lt;/div&gt;" style="text;strokeColor=none;fillColor=none;html=1;align=center;verticalAlign=middle;whiteSpace=wrap;rounded=0;fontSize=16;" parent="1" vertex="1">
          <mxGeometry x="790.75" y="400" width="120" height="30" as="geometry" />
        </mxCell>
        <mxCell id="tC6INBS62KU_Nt3FtVll-95" value="" style="rhombus;whiteSpace=wrap;html=1;fillColor=none;strokeColor=light-dark(#000000,#000000);strokeWidth=3;" parent="1" vertex="1">
          <mxGeometry x="886.75" y="418" width="237" height="80" as="geometry" />
        </mxCell>
        <mxCell id="tC6INBS62KU_Nt3FtVll-96" value="&lt;div&gt;&lt;span style=&quot;color: light-dark(rgb(0, 0, 0), rgb(0, 0, 0));&quot;&gt;&quot;controller_manager&quot;&lt;/span&gt;&lt;/div&gt;&lt;div&gt;&lt;span style=&quot;color: light-dark(rgb(0, 0, 0), rgb(0, 0, 0));&quot;&gt;spawner&lt;/span&gt;&lt;/div&gt;" style="text;strokeColor=none;fillColor=none;html=1;align=center;verticalAlign=middle;whiteSpace=wrap;rounded=0;fontSize=16;" parent="1" vertex="1">
          <mxGeometry x="944.75" y="446" width="120" height="30" as="geometry" />
        </mxCell>
        <mxCell id="tC6INBS62KU_Nt3FtVll-97" value="" style="endArrow=classic;html=1;rounded=0;fontSize=12;startSize=8;endSize=8;curved=1;strokeColor=light-dark(#000000,#000000);entryX=0.5;entryY=0;entryDx=0;entryDy=0;exitX=0.5;exitY=1;exitDx=0;exitDy=0;strokeWidth=3;" parent="1" source="tC6INBS62KU_Nt3FtVll-81" target="tC6INBS62KU_Nt3FtVll-91" edge="1">
          <mxGeometry width="50" height="50" relative="1" as="geometry">
            <mxPoint x="721" y="351" as="sourcePoint" />
            <mxPoint x="865" y="396" as="targetPoint" />
            <Array as="points">
              <mxPoint x="741" y="351" />
            </Array>
          </mxGeometry>
        </mxCell>
        <mxCell id="tC6INBS62KU_Nt3FtVll-98" value="" style="endArrow=classic;html=1;rounded=0;fontSize=12;startSize=8;endSize=8;curved=1;strokeColor=light-dark(#000000,#000000);entryX=0.5;entryY=0;entryDx=0;entryDy=0;exitX=0.75;exitY=1;exitDx=0;exitDy=0;strokeWidth=3;" parent="1" source="tC6INBS62KU_Nt3FtVll-81" target="tC6INBS62KU_Nt3FtVll-93" edge="1">
          <mxGeometry width="50" height="50" relative="1" as="geometry">
            <mxPoint x="831" y="331" as="sourcePoint" />
            <mxPoint x="975" y="376" as="targetPoint" />
            <Array as="points">
              <mxPoint x="851" y="331" />
            </Array>
          </mxGeometry>
        </mxCell>
        <mxCell id="tC6INBS62KU_Nt3FtVll-99" value="" style="endArrow=classic;html=1;rounded=0;fontSize=12;startSize=8;endSize=8;curved=1;strokeColor=light-dark(#000000,#000000);entryX=0.5;entryY=0;entryDx=0;entryDy=0;exitX=1;exitY=0.75;exitDx=0;exitDy=0;strokeWidth=3;" parent="1" source="tC6INBS62KU_Nt3FtVll-81" target="tC6INBS62KU_Nt3FtVll-95" edge="1">
          <mxGeometry width="50" height="50" relative="1" as="geometry">
            <mxPoint x="1001" y="361" as="sourcePoint" />
            <mxPoint x="1145" y="406" as="targetPoint" />
            <Array as="points">
              <mxPoint x="1001" y="331" />
            </Array>
          </mxGeometry>
        </mxCell>
        <mxCell id="OMGo_qs0FrxizGQiB1jh-3" value="" style="rounded=0;whiteSpace=wrap;html=1;fillColor=none;strokeColor=light-dark(#000000,#000000);strokeWidth=3;" vertex="1" parent="1">
          <mxGeometry x="942.75" y="130" width="163.25" height="120" as="geometry" />
        </mxCell>
        <mxCell id="OMGo_qs0FrxizGQiB1jh-4" value="&lt;div align=&quot;left&quot;&gt;&lt;span style=&quot;color: light-dark(rgb(0, 0, 0), rgb(0, 0, 0));&quot;&gt;Legend:&lt;/span&gt;&lt;/div&gt;&lt;div align=&quot;left&quot;&gt;&lt;span style=&quot;color: light-dark(rgb(0, 0, 0), rgb(0, 0, 0));&quot;&gt;&lt;br&gt;&lt;/span&gt;&lt;/div&gt;&lt;div align=&quot;left&quot;&gt;&lt;span style=&quot;color: light-dark(rgb(0, 0, 0), rgb(0, 0, 0));&quot;&gt;&lt;span style=&quot;white-space: pre;&quot;&gt;&quot;(arg)&quot;&lt;/span&gt;&lt;span style=&quot;white-space: pre;&quot;&gt;&#x9;&lt;span style=&quot;white-space: pre;&quot;&gt;&#x9;&lt;/span&gt;&lt;/span&gt;= pkg name&lt;/span&gt;&lt;/div&gt;&lt;div align=&quot;left&quot;&gt;&lt;span style=&quot;color: light-dark(rgb(0, 0, 0), rgb(0, 0, 0));&quot;&gt;&lt;br&gt;&lt;/span&gt;&lt;/div&gt;&lt;div align=&quot;left&quot;&gt;&lt;span style=&quot;color: light-dark(rgb(0, 0, 0), rgb(0, 0, 0));&quot;&gt;&lt;span style=&quot;white-space: pre;&quot;&gt;&#x9;&lt;/span&gt;&lt;span style=&quot;white-space: pre;&quot;&gt;&#x9;&lt;span style=&quot;white-space: pre;&quot;&gt;&#x9;&lt;/span&gt;&lt;/span&gt;= launch file&lt;/span&gt;&lt;/div&gt;&lt;div align=&quot;left&quot;&gt;&lt;span style=&quot;color: light-dark(rgb(0, 0, 0), rgb(0, 0, 0));&quot;&gt;&lt;br&gt;&lt;/span&gt;&lt;/div&gt;&lt;div align=&quot;left&quot;&gt;&lt;span style=&quot;color: light-dark(rgb(0, 0, 0), rgb(0, 0, 0));&quot;&gt;&lt;span style=&quot;white-space: pre;&quot;&gt;&#x9;&lt;/span&gt;&lt;span style=&quot;white-space: pre;&quot;&gt;&#x9;&lt;/span&gt;&lt;span style=&quot;white-space: pre;&quot;&gt;&#x9;&lt;/span&gt;= node&lt;/span&gt;&lt;/div&gt;" style="text;html=1;whiteSpace=wrap;strokeColor=none;fillColor=none;align=left;verticalAlign=middle;rounded=0;" vertex="1" parent="1">
          <mxGeometry x="951" y="148" width="149" height="70" as="geometry" />
        </mxCell>
        <mxCell id="OMGo_qs0FrxizGQiB1jh-5" value="" style="rounded=1;whiteSpace=wrap;html=1;fillColor=none;strokeColor=light-dark(#000000,#000000);strokeWidth=2;" vertex="1" parent="1">
          <mxGeometry x="953.5" y="192.5" width="49.25" height="15" as="geometry" />
        </mxCell>
        <mxCell id="OMGo_qs0FrxizGQiB1jh-6" value="" style="rhombus;whiteSpace=wrap;html=1;fillColor=none;strokeColor=light-dark(#000000,#000000);strokeWidth=2;" vertex="1" parent="1">
          <mxGeometry x="951" y="216" width="55" height="25" as="geometry" />
        </mxCell>
      </root>
    </mxGraphModel>
  </diagram>
</mxfile>
